<svg id="Livello_1" data-name="Livello 1" xmlns="http://www.w3.org/2000/svg" viewBox="0 0 450 450"><defs><style>.cls-1{fill:#dc3545;}.cls-2,.cls-5{fill:none;stroke-miterlimit:10;}.cls-2{stroke:#dc3545;}.cls-3{fill:#fff;}.cls-4{fill:#28a745;}.cls-5{stroke:#28a745;}</style></defs><path class="cls-1" d="M440.2,176a107.55,107.55,0,0,1-107.5,102.9H285.1c11.6-20.9,27.2-37.8,49.6-47C373.1,216.05,408.7,203,440.2,176Z"/><path class="cls-1" d="M305.7,332.65l-26.8,53.9-19.8-33.1c5.5-22.3,11.7-44.5,20.8-64.2Z"/><line class="cls-2" x1="278.8" y1="386.55" x2="319.3" y2="305.65"/><path class="cls-3" d="M440.4,171.15a37.74,37.74,0,0,1-.2,4.8c-31.7,27-67.1,40.1-105.5,55.9-22.5,9.2-38.1,26.1-49.6,47H273.4l6.2,10.5c-9.1,19.5-15.5,41.8-20.8,64.2l-44.6-74.5a309.17,309.17,0,0,0-55.1,6.4c4.5-18.6,8.6-38.9,14.4-58.1,3.1-.3,6.2-.6,9.4-.8l-5.9-9.8c6.9-19.2,16.1-36.5,30.1-48.4l34,56.5h90.7c29.5,0,54.2-23.4,54.8-52.9a53.74,53.74,0,0,0-52.7-54.8H302.8c15.3-12.6,29.5-29.2,42.5-53.1A107.8,107.8,0,0,1,440.4,171.15Z"/><path class="cls-4" d="M173.5,227.25c-5.8,19.2-9.8,39.5-14.4,58.1C48.4,308.75,9.6,386.45,9.6,386.45,9.6,273.45,85.5,236.35,173.5,227.25Z"/><path class="cls-4" d="M207.2,168.25c-14.2,11.9-23.4,29.2-30.1,48.4l-59.8-99.4,26.8-53.8Z"/><path class="cls-4" d="M345,64.05c-12.8,23.9-27,40.6-42.5,53.1H278.6a53.6,53.6,0,0,1-53.7-53.5v-.2H332.6A85.15,85.15,0,0,1,345,64.05Z"/><line class="cls-5" x1="144.1" y1="63.45" x2="50" y2="251.75"/></svg>